# xmcd
#
# Track frame offsets:
#	150
#	30402
#	54664
#	74204
#	98062
#	131771
#	151227
#
# Disc length: 2295 seconds
#
# Revision: 1
# Processed by: cddbd v1.5.1PL0 Copyright (c) Steve Scherf et al.
# Submitted via: EasyCDDAExtractor 8.0.2.1
#
DISCID=5d08f507
DTITLE=David Bowie - Candidate New Haven 1974 Disc 2
DYEAR=1974
DGENRE=Rock
TTITLE0=Diamond Dogs
TTITLE1=Panic In Detroit
TTITLE2=Big Brother
TTITLE3=Time
TTITLE4=The Width Of A Circle
TTITLE5=The Jean Genie
TTITLE6=Rock 'n' Roll Suicide
EXTD=
EXTT0=
EXTT1=
EXTT2=
EXTT3=
EXTT4=
EXTT5=
EXTT6=
PLAYORDER=
